<svg id="flat_purple_light" data-name="flat purple light" xmlns="http://www.w3.org/2000/svg" xmlns:xlink="http://www.w3.org/1999/xlink" width="128" height="128" viewBox="0 0 512 512">
  <defs>
    <style>
      .cls-1 {
        fill: #f9e221;
      }

      .cls-1, .cls-10, .cls-11, .cls-12, .cls-13, .cls-2, .cls-3, .cls-4, .cls-5, .cls-6, .cls-7, .cls-8, .cls-9 {
        fill-rule: evenodd;
      }

      .cls-2 {
        fill: #fff;
      }

      .cls-3 {
        fill: #ffd458;
      }

      .cls-4 {
        fill: #a18afa;
      }

      .cls-5 {
        fill: #beaeff;
      }

      .cls-6 {
        fill: #060b16;
      }

      .cls-7 {
        fill: url(#linear-gradient);
      }

      .cls-8 {
        fill: url(#linear-gradient-2);
      }

      .cls-9 {
        fill: #ae26fd;
      }

      .cls-10 {
        fill: #101010;
      }

      .cls-11 {
        fill: #8a6ff4;
      }

      .cls-12 {
        fill: #5c3ade;
      }

      .cls-13 {
        fill: #795bed;
      }
    </style>
    <linearGradient id="linear-gradient" x1="269.89" y1="420.625" x2="269.89" y2="360.688" gradientUnits="userSpaceOnUse">
      <stop offset="0" stop-color="#170b22"/>
      <stop offset="0.767" stop-color="#25103b"/>
      <stop offset="0.996" stop-color="#190c26"/>
      <stop offset="1" stop-color="#190c26"/>
    </linearGradient>
    <linearGradient id="linear-gradient-2" x1="116.125" y1="341.125" x2="116.125" y2="283.656" xlink:href="#linear-gradient"/>
  </defs>
  <path id="Rectangle_1_copy_8" data-name="Rectangle 1 copy 8" class="cls-1" d="M13.974,328.074L210,169.935l9.133,4.624L502.237,317.9c5.044,2.554,5.18,7.813.3,11.747L315.347,480.664c-4.877,3.934-12.919,5.053-17.963,2.5L6.788,336.03,5.144,335.2Zm23.437-18.908L185.274,189.88l8.468,4.288L456.26,327.085c4.677,2.368,5.486,6.694,1.808,9.661l-141.2,113.913c-3.679,2.967-10.452,3.454-15.129,1.086L32.275,315.311l-1.524-.771Z"/>
  <g id="car_parts_copy" data-name="car parts copy">
    <g id="body">
      <path class="cls-2" d="M306.466,423.237l112.84-87.284-1.24-52.862-54.56-28.275V102.377L222.146,33.534,109.305,120.817l-1.24,113.1-32.24,22.129-1.24,51.632Z"/>
      <path class="cls-2" d="M419.934,304.741s4.067-34.748,0-37.528c-10.741-7.34-111.122,74.826-115.314,82.561s-1.281,48.786-1.281,48.786Z"/>
      <path class="cls-2" d="M363.619,103S257.683,183.278,253.146,191.04c-3.193,5.46-1.24,147.662-1.24,147.662l-142.6-71.37s-5.027-142.44-1.24-150.123c4.329-8.78,100.13-81.53,112.841-83.676C233.879,31.343,358.079,96.61,363.619,103Z"/>
    </g>
    <g id="windows">
      <path class="cls-3" d="M254.386,200.506v139.4L162.626,291l-2.48-136.958Zm-95.48,89.267-43.4-22.011s0.724-62.569,0-79.484,4.03-55.639,19.841-47.691,19.84,9.783,19.84,9.783Z"/>
      <path id="Shape_8_copy" data-name="Shape 8 copy" class="cls-4" d="M254.386,200.425V339.69l-91.76-48.865L160.146,154ZM158.906,289.6l-43.4-21.99s0.724-62.507,0-79.406,4.03-55.584,19.841-47.643,19.84,9.773,19.84,9.773Z"/>
      <path id="Shape_8_copy_2" data-name="Shape 8 copy 2" class="cls-5" d="M229.849,326.105l-67.6-56.539-1.17-64.423L250,276.547v-15.8l-89.231-72.584L160.4,167.6l93.99,77.823v93.726Zm-110.5-171.64c1.911-6.531,4.6-11.863,8.217-14.05l27.98,23.167,0.556,20.78Zm37.212,47.05,1.733,64.744-42.5-35.546c0.074-16.839.054-34.828-.287-42.758a118.577,118.577,0,0,1,.915-18.672Z"/>
      <path class="cls-4" d="M359.786,113.657l-104.16,80.105-1.24,140.792,105.4-78.892v-142Z"/>
      <path class="cls-5" d="M310.654,277.179l39.212-58.4v22.133l-9.429,14.041Zm-52.548,39.207V284.613l91.76-136.652v55.33l-60.06,89.443Zm0-82.677,58.585-87.246,16.442-12.993,0.834,0.542L258.106,246.989v-13.28Z"/>
      <path class="cls-2" d="M249.226,177.464h2.88a6,6,0,0,1,6,6V346.37a6,6,0,0,1-6,6h-2.88a6,6,0,0,1-6-6V183.464A6,6,0,0,1,249.226,177.464Z"/>
      <path class="cls-2" d="M349.866,108.56h12.4V280.751h-12.4V108.56Z"/>
      <path class="cls-2" d="M146.506,143.009h13.64V305.376h-13.64V143.009Z"/>
    </g>
    <path class="cls-2" d="M418.066,280.764s7.777-5.807,0-11.125c-6.027-4.121-54.56-29.668-54.56-29.668l-110.36,82.823L111.785,253.569l-2.48-35.848s-28.182,16.361-32.24,22.25-1.24,53.155-1.24,53.155l234.361,116.2s-8.343-44.622-2.48-55.627,100.364-73.465,102.92-75.405S418.066,280.764,418.066,280.764Z"/>
    <path id="Ellipse_2_copy_2" data-name="Ellipse 2 copy 2" class="cls-6" d="M262.672,358.684c20.236,9.673,17.754,50.926,17.754,50.926l-38.44-19.565S240.56,348.114,262.672,358.684Z"/>
    <path id="Ellipse_2_copy_3" data-name="Ellipse 2 copy 3" class="cls-6" d="M110.151,284.091c20.237,9.673,17.754,50.926,17.754,50.926l-38.44-19.565S88.04,273.521,110.151,284.091Z"/>
    <g id="tires">
      <path class="cls-7" d="M255.626,364.365l9.92-3.668a49.68,49.68,0,0,1,8.68,9.783c6.722,9.783,6.2,39.13,6.2,39.13l3.72,1.223-18.6,9.783Z"/>
      <path id="Shape_23_copy" data-name="Shape 23 copy" class="cls-8" d="M101.865,287.327l7.44-3.668s4.75,0.673,11.16,9.782c7.619,10.828,6.2,39.131,6.2,39.131l3.72,1.223-14.88,7.337Z"/>
      <path class="cls-2" d="M261,365.377c8.675,4.5,15.707,19.96,15.707,34.536S269.674,422.66,261,418.163s-15.707-19.959-15.707-34.536S252.324,360.88,261,365.377Z"/>
      <path class="cls-9" d="M261.206,377.019c5.136,2.954,9.3,12.465,9.3,21.244s-4.164,13.5-9.3,10.546-9.3-12.466-9.3-21.245S256.069,374.064,261.206,377.019Z"/>
      <path id="Ellipse_2_copy" data-name="Ellipse 2 copy" class="cls-2" d="M108.479,288.425c8.674,4.5,15.706,19.96,15.706,34.536s-7.032,22.748-15.706,18.25-15.707-19.959-15.707-34.536S99.8,283.928,108.479,288.425Z"/>
      <path id="Ellipse_2_copy_5" data-name="Ellipse 2 copy 5" class="cls-10" d="M261.613,366.52c8.871,4.6,16.063,20.391,16.063,35.282s-7.192,23.239-16.063,18.644-16.062-20.39-16.062-35.282S252.742,361.926,261.613,366.52Z"/>
      <path id="Ellipse_2_copy_6" data-name="Ellipse 2 copy 6" class="cls-2" d="M111.549,271.751c12.87,6.662,23.3,29.567,23.3,51.16s-10.434,33.7-23.3,27.034-23.3-29.567-23.3-51.16S98.678,265.089,111.549,271.751Z"/>
      <path id="Ellipse_2_copy_7" data-name="Ellipse 2 copy 7" class="cls-11" d="M111.549,281.875c9.915,5.142,17.952,22.818,17.952,39.482s-8.037,26.006-17.952,20.864S93.6,319.4,93.6,302.739,101.634,276.734,111.549,281.875Z"/>
      <path id="Ellipse_2_copy_8" data-name="Ellipse 2 copy 8" class="cls-2" d="M261.589,349.856c12.871,6.688,23.3,29.683,23.3,51.36s-10.433,33.828-23.3,27.14-23.3-29.682-23.3-51.359S248.718,343.168,261.589,349.856Z"/>
      <path id="Ellipse_2_copy_8-2" data-name="Ellipse 2 copy 8" class="cls-11" d="M261.589,360.151c9.915,5.142,17.953,22.818,17.953,39.483s-8.038,26-17.953,20.863-17.953-22.818-17.953-39.482S251.674,355.01,261.589,360.151Z"/>
    </g>
    <g id="bumper">
      <path class="cls-2" d="M80.785,314.622l6.2-4.882s-1.139-2.519-2.48-2.44l-2.48-10.984-3.72-4.882-1.24-7.323-13.64,2.441,1.24,21.968Zm212.041,80.549,16.12,4.882,111.6-87.872v-12.2a80.421,80.421,0,0,1,13.64,8.543c4.547,3.458,2.48,20.747,2.48,20.747l-127.72,98.856-22.32-9.763s-2.377-14.747,1.24-18.307Z"/>
      <path id="Shape_10_copy" data-name="Shape 10 copy" class="cls-2" d="M80.785,305.376h4.96s2.581-7.459,1.24-7.38V285.7l-7.44-2.46-1.24-8.61L63.425,285.7l1.24,13.531ZM292.826,386.56l16.12,4.92,111.6-88.564v-12.3a80.332,80.332,0,0,1,13.64,8.61c4.547,3.485,2.48,20.911,2.48,20.911l-127.72,99.635-22.32-9.841s-2.377-14.863,1.24-18.451Z"/>
      <path class="cls-2" d="M292.826,390.5l16.12,4.941,111.6-88.933V291.688a80.222,80.222,0,0,1,13.64,8.646c4.547,3.5,2.48,23.468,2.48,23.468l-127.72,100.05-22.32-9.881s-2.377-14.925,1.24-18.528Z"/>
    </g>
    <g id="grill">
      <path id="Rectangle_2_copy" data-name="Rectangle 2 copy" class="cls-12" d="M313.906,348.835l99.2-75.145c3.424-2.594,6.2-1.967,6.2,1.4v17.07c0,3.367-2.776,8.2-6.2,10.793l-99.2,75.145c-3.424,2.594-6.2,1.967-6.2-1.4v-17.07C307.706,356.261,310.482,351.429,313.906,348.835Zm4.96-.1,90.52-68.57c3.424-2.594,6.2-1.967,6.2,1.4v9.754c0,3.367-2.776,8.2-6.2,10.793l-90.52,68.57c-3.424,2.594-6.2,1.967-6.2-1.4v-9.754C312.666,356.162,315.442,351.329,318.866,348.736Z"/>
    </g>
    <g id="mirrors">
      <path id="Rectangle_2_copy_2" data-name="Rectangle 2 copy 2" class="cls-2" d="M369.086,215.5l3.72-2.718c3.424-2.5,6.2-1.839,6.2,1.479v12.019c0,3.319-2.776,8.037-6.2,10.539l-3.72,2.718c-3.424,2.5-6.2,1.84-6.2-1.479V226.039C362.886,222.72,365.662,218,369.086,215.5Zm-128.96,92.543,3.72-2.718c3.424-2.5,6.2-1.84,6.2,1.479v12.019c0,3.319-2.776,8.037-6.2,10.539l-3.72,2.718c-3.424,2.5-6.2,1.84-6.2-1.479V318.581C233.926,315.263,236.7,310.544,240.126,308.042Z"/>
    </g>
    <g id="lights">
      <path class="cls-13" d="M318.4,350.592l17.061-13.277c2.48-1.93,4.49-.794,4.49,2.537v6.032a13.542,13.542,0,0,1-4.49,9.525L318.4,368.686c-2.479,1.93-4.489.794-4.489-2.537v-6.031A13.547,13.547,0,0,1,318.4,350.592Z"/>
      <path id="Rectangle_2_copy_3" data-name="Rectangle 2 copy 3" class="cls-13" d="M392.8,295.1l17.06-13.277c2.48-1.929,4.49-.793,4.49,2.538V290.4a13.542,13.542,0,0,1-4.49,9.525L392.8,313.2c-2.48,1.93-4.49.794-4.49-2.537V304.63A13.544,13.544,0,0,1,392.8,295.1Z"/>
    </g>
  </g>
</svg>
