<svg id="flat_purple" data-name="flat purple" xmlns="http://www.w3.org/2000/svg" xmlns:xlink="http://www.w3.org/1999/xlink" width="128" height="128" viewBox="0 0 512 512">
  <defs>
    <style>
      .cls-1 {
        fill: #f7c003;
      }

      .cls-1, .cls-10, .cls-11, .cls-12, .cls-13, .cls-14, .cls-2, .cls-3, .cls-4, .cls-5, .cls-6, .cls-7, .cls-8, .cls-9 {
        fill-rule: evenodd;
      }

      .cls-2 {
        fill: #492ac0;
      }

      .cls-3 {
        fill: #ffd458;
      }

      .cls-4 {
        fill: #e8e1ff;
      }

      .cls-5 {
        fill: #cdbffd;
      }

      .cls-6 {
        fill: #efebff;
      }

      .cls-7 {
        fill: #060b16;
      }

      .cls-8 {
        fill: url(#linear-gradient);
      }

      .cls-9 {
        fill: url(#linear-gradient-2);
      }

      .cls-10 {
        fill: #fff;
      }

      .cls-11 {
        fill: #ae26fd;
      }

      .cls-12 {
        fill: #ef3d59;
      }

      .cls-13 {
        fill: #101010;
      }

      .cls-14 {
        fill: #e6dfff;
      }
    </style>
    <linearGradient id="linear-gradient" x1="269.89" y1="425.375" x2="269.89" y2="364.625" gradientUnits="userSpaceOnUse">
      <stop offset="0" stop-color="#170b22"/>
      <stop offset="0.767" stop-color="#25103b"/>
      <stop offset="0.996" stop-color="#190c26"/>
      <stop offset="1" stop-color="#190c26"/>
    </linearGradient>
    <linearGradient id="linear-gradient-2" x1="116.125" y1="344.781" x2="116.125" y2="286.5" xlink:href="#linear-gradient"/>
  </defs>
  <path id="Rectangle_1_copy_8" data-name="Rectangle 1 copy 8" class="cls-1" d="M13.974,331.533L210,171.174l9.133,4.689L502.237,321.218c5.044,2.589,5.18,7.923.3,11.912L315.347,486.266c-4.877,3.989-12.919,5.124-17.963,2.535L6.788,339.6l-1.644-.844ZM37.411,312.36L185.274,191.4l8.468,4.348L456.26,330.531c4.677,2.4,5.486,6.787,1.808,9.8L316.866,455.84c-3.679,3.009-10.452,3.5-15.129,1.1L32.275,318.592l-1.524-.783Z"/>
  <g id="car_parts_copy" data-name="car parts copy">
    <g id="body">
      <path class="cls-2" d="M306.466,425.028l112.84-87.685-1.24-53.105-54.56-28.4V102.694l-141.36-69.16L109.305,121.219l-1.24,113.619-32.24,22.23-1.24,51.87Z"/>
      <path class="cls-2" d="M419.934,307.1s4.067-35.087,0-37.893c-10.741-7.412-111.122,75.554-115.314,83.364s-1.281,49.262-1.281,49.262Z"/>
      <path class="cls-2" d="M363.619,102.993s-105.936,80.263-110.473,88.023c-3.193,5.46-1.24,147.64-1.24,147.64L109.305,267.3s-5.027-142.419-1.24-150.1c4.329-8.779,100.13-81.517,112.841-83.663C233.879,31.344,358.079,96.6,363.619,102.993Z"/>
    </g>
    <g id="windows">
      <path class="cls-3" d="M254.386,202.174v141.36l-91.76-49.6-2.48-138.88Zm-95.48,90.52-43.4-22.32s0.724-63.447,0-80.6,4.03-56.42,19.841-48.36,19.84,9.92,19.84,9.92Z"/>
      <path id="Shape_8_copy" data-name="Shape 8 copy" class="cls-4" d="M254.386,202.117v141.23l-91.76-49.554-2.48-138.753Zm-95.48,90.437-43.4-22.3s0.724-63.388,0-80.526,4.03-56.368,19.841-48.315,19.84,9.911,19.84,9.911Z"/>
      <path id="Shape_8_copy_2" data-name="Shape 8 copy 2" class="cls-5" d="M229.849,329.173l-67.6-57.24-1.17-65.222L250,279V263l-89.231-73.484L160.4,168.7l93.99,78.788v94.888ZM119.348,155.4c1.911-6.611,4.6-12.01,8.217-14.224l27.98,23.454,0.556,21.037Zm37.212,47.634,1.733,65.546-42.5-35.986c0.074-17.048.054-35.26-.287-43.288a121.523,121.523,0,0,1,.915-18.9Z"/>
      <path class="cls-6" d="M359.786,114.126l-104.16,81.235-1.24,142.777,105.4-80V114.126Z"/>
      <path class="cls-5" d="M310.654,279.511l39.212-59.065v22.386l-9.429,14.2Zm-52.548,39.657V287.031l91.76-138.219v55.964l-60.06,90.468Zm0-83.625L316.691,147.3l16.442-13.142,0.834,0.549L258.106,248.975V235.543Z"/>
      <path class="cls-2" d="M249.226,178.193h2.88a6,6,0,0,1,6,6v163.64a6,6,0,0,1-6,6h-2.88a6,6,0,0,1-6-6V184.193A6,6,0,0,1,249.226,178.193Z"/>
      <path class="cls-2" d="M349.866,109h12.4V281.913h-12.4V109Z"/>
      <path class="cls-2" d="M146.506,143.593h13.64V306.642h-13.64V143.593Z"/>
    </g>
    <path class="cls-2" d="M418.066,280.845s7.777-5.809,0-11.129c-6.027-4.123-54.56-29.677-54.56-29.677l-110.36,82.849L111.785,253.641l-2.48-35.86s-28.182,16.366-32.24,22.258-1.24,53.172-1.24,53.172L310.186,409.447s-8.343-44.637-2.48-55.645,100.364-73.49,102.92-75.43S418.066,280.845,418.066,280.845Z"/>
    <path id="Ellipse_2_copy_2" data-name="Ellipse 2 copy 2" class="cls-7" d="M262.672,362.573c20.236,9.809,17.754,51.642,17.754,51.642l-38.44-19.841S240.56,351.855,262.672,362.573Z"/>
    <path id="Ellipse_2_copy_3" data-name="Ellipse 2 copy 3" class="cls-7" d="M110.151,286.933c20.237,9.809,17.754,51.641,17.754,51.641l-38.44-19.84S88.04,276.215,110.151,286.933Z"/>
    <g id="tires">
      <path class="cls-8" d="M255.626,368.334l9.92-3.72a50.143,50.143,0,0,1,8.68,9.92c6.722,9.922,6.2,39.681,6.2,39.681l3.72,1.239-18.6,9.921Z"/>
      <path id="Shape_23_copy" data-name="Shape 23 copy" class="cls-9" d="M101.865,290.214l7.44-3.72s4.75,0.683,11.16,9.92c7.619,10.98,6.2,39.68,6.2,39.68l3.72,1.24-14.88,7.44Z"/>
      <path class="cls-10" d="M261,369.36c8.675,4.561,15.707,20.24,15.707,35.021S269.674,427.448,261,422.888s-15.707-20.24-15.707-35.022S252.324,364.8,261,369.36Z"/>
      <path class="cls-11" d="M261.206,381.165c5.136,3,9.3,12.641,9.3,21.543s-4.164,13.69-9.3,10.694-9.3-12.641-9.3-21.543S256.069,378.169,261.206,381.165Z"/>
      <path id="Ellipse_2_copy" data-name="Ellipse 2 copy" class="cls-10" d="M108.479,291.328c8.674,4.56,15.706,20.24,15.706,35.021s-7.032,23.067-15.706,18.506-15.707-20.24-15.707-35.021S99.8,286.767,108.479,291.328Z"/>
      <path id="Ellipse_2_copy_4" data-name="Ellipse 2 copy 4" class="cls-12" d="M261.613,360.153c17.716,8.523,20.851,26.832,20.851,46.427s-9.335,30.58-20.851,24.534-20.85-26.832-20.85-46.427S249.893,354.515,261.613,360.153Z"/>
      <path id="Ellipse_2_copy_5" data-name="Ellipse 2 copy 5" class="cls-13" d="M261.613,370.52c8.871,4.658,16.063,20.676,16.063,35.777s-7.192,23.565-16.063,18.906-16.062-20.677-16.062-35.778S252.742,365.861,261.613,370.52Z"/>
      <path id="Ellipse_2_copy_6" data-name="Ellipse 2 copy 6" class="cls-2" d="M111.549,271.88c12.87,6.74,23.3,29.914,23.3,51.761s-10.434,34.092-23.3,27.352-23.3-29.914-23.3-51.761S98.678,265.14,111.549,271.88Z"/>
      <path id="Ellipse_2_copy_7" data-name="Ellipse 2 copy 7" class="cls-13" d="M111.549,284.208c9.915,5.213,17.952,23.135,17.952,40.029s-8.037,26.366-17.952,21.153S93.6,322.256,93.6,305.361,101.634,279,111.549,284.208Z"/>
      <path id="Ellipse_2_copy_8" data-name="Ellipse 2 copy 8" class="cls-2" d="M261.589,351.041c12.871,6.741,23.3,29.915,23.3,51.761s-10.433,34.093-23.3,27.353-23.3-29.915-23.3-51.761S248.718,344.3,261.589,351.041Z"/>
      <path id="Ellipse_2_copy_8-2" data-name="Ellipse 2 copy 8" class="cls-13" d="M261.589,363.569c9.915,5.212,17.953,23.134,17.953,40.029s-8.038,26.365-17.953,21.152-17.953-23.134-17.953-40.029S251.674,358.356,261.589,363.569Z"/>
    </g>
    <g id="bumper">
      <path class="cls-2" d="M80.785,316.593l6.2-4.94s-1.139-2.549-2.48-2.47l-2.48-11.116-3.72-4.941-1.24-7.411-13.64,2.471,1.24,22.232Zm212.041,81.519,16.12,4.94,111.6-88.929V301.772a80.3,80.3,0,0,1,13.64,8.646c4.547,3.5,2.48,21,2.48,21L308.946,431.46l-22.32-9.881s-2.377-14.924,1.24-18.527Z"/>
      <path id="Shape_10_copy" data-name="Shape 10 copy" class="cls-2" d="M80.785,306.642h4.96s2.581-7.491,1.24-7.412V286.878l-7.44-2.47-1.24-8.647-14.88,11.117,1.24,13.588Zm212.041,81.524,16.12,4.941,111.6-88.936V291.819a80.274,80.274,0,0,1,13.64,8.647c4.547,3.5,2.48,21,2.48,21L308.946,421.517l-22.32-9.881s-2.377-14.926,1.24-18.529Z"/>
      <path class="cls-2" d="M292.826,390.449l16.12,4.94,111.6-88.92v-14.82a80.249,80.249,0,0,1,13.64,8.645c4.547,3.5,2.48,23.465,2.48,23.465L308.946,423.794l-22.32-9.88s-2.377-14.923,1.24-18.525Z"/>
    </g>
    <g id="grill">
      <path id="Rectangle_2_copy" data-name="Rectangle 2 copy" class="cls-13" d="M313.906,352.811l99.2-76.42c3.424-2.638,6.2-2,6.2,1.423v17.36c0,3.424-2.776,8.339-6.2,10.977l-99.2,76.42c-3.424,2.638-6.2,2-6.2-1.423v-17.36C307.706,360.364,310.482,355.449,313.906,352.811Zm4.96-.1,90.52-69.734c3.424-2.638,6.2-2,6.2,1.424v9.92c0,3.424-2.776,8.338-6.2,10.976l-90.52,69.734c-3.424,2.638-6.2,2-6.2-1.423v-9.92C312.666,360.263,315.442,355.348,318.866,352.71Z"/>
    </g>
    <g id="mirrors">
      <path id="Rectangle_2_copy_2" data-name="Rectangle 2 copy 2" class="cls-2" d="M369.086,216.936l3.72-2.764c3.424-2.545,6.2-1.872,6.2,1.5V227.9c0,3.376-2.776,8.176-6.2,10.721l-3.72,2.764c-3.424,2.545-6.2,1.872-6.2-1.5V227.657C362.886,224.281,365.662,219.481,369.086,216.936Zm-128.96,94.137,3.72-2.765c3.424-2.545,6.2-1.871,6.2,1.5v12.225c0,3.376-2.776,8.176-6.2,10.721l-3.72,2.765c-3.424,2.545-6.2,1.871-6.2-1.5V321.794C233.926,318.418,236.7,313.618,240.126,311.073Z"/>
    </g>
    <g id="lights">
      <path class="cls-14" d="M318.4,354.368L335.456,340.9c2.48-1.956,4.49-.805,4.49,2.573v6.116a13.808,13.808,0,0,1-4.49,9.659L318.4,372.716c-2.479,1.957-4.489.805-4.489-2.573v-6.116A13.813,13.813,0,0,1,318.4,354.368Z"/>
      <path id="Rectangle_2_copy_3" data-name="Rectangle 2 copy 3" class="cls-14" d="M392.8,298.1l17.06-13.464c2.48-1.956,4.49-.805,4.49,2.573v6.116a13.81,13.81,0,0,1-4.49,9.659L392.8,316.449c-2.48,1.957-4.49.805-4.49-2.573V307.76A13.81,13.81,0,0,1,392.8,298.1Z"/>
    </g>
  </g>
</svg>
